<?xml version="1.0" encoding="utf-8"?>
<svg xmlns="http://www.w3.org/2000/svg" xmlns:xlink="http://www.w3.org/1999/xlink" style="margin: auto; background: rgb(255, 255, 255); display: block; shape-rendering: auto;" width="200px" height="200px" viewBox="0 0 100 100" preserveAspectRatio="xMidYMid">
<g transform="rotate(0 50 50)">
  <rect x="48.5" y="26.5" rx="1.5" ry="3.5" width="3" height="7" fill="#64a4ef">
    <animate attributeName="opacity" values="1;0" keyTimes="0;1" dur="1.36986301369863s" begin="-1.317175974710221s" repeatCount="indefinite"></animate>
  </rect>
</g><g transform="rotate(13.846153846153847 50 50)">
  <rect x="48.5" y="26.5" rx="1.5" ry="3.5" width="3" height="7" fill="#64a4ef">
    <animate attributeName="opacity" values="1;0" keyTimes="0;1" dur="1.36986301369863s" begin="-1.264488935721812s" repeatCount="indefinite"></animate>
  </rect>
</g><g transform="rotate(27.692307692307693 50 50)">
  <rect x="48.5" y="26.5" rx="1.5" ry="3.5" width="3" height="7" fill="#64a4ef">
    <animate attributeName="opacity" values="1;0" keyTimes="0;1" dur="1.36986301369863s" begin="-1.2118018967334034s" repeatCount="indefinite"></animate>
  </rect>
</g><g transform="rotate(41.53846153846154 50 50)">
  <rect x="48.5" y="26.5" rx="1.5" ry="3.5" width="3" height="7" fill="#64a4ef">
    <animate attributeName="opacity" values="1;0" keyTimes="0;1" dur="1.36986301369863s" begin="-1.1591148577449946s" repeatCount="indefinite"></animate>
  </rect>
</g><g transform="rotate(55.38461538461539 50 50)">
  <rect x="48.5" y="26.5" rx="1.5" ry="3.5" width="3" height="7" fill="#64a4ef">
    <animate attributeName="opacity" values="1;0" keyTimes="0;1" dur="1.36986301369863s" begin="-1.1064278187565857s" repeatCount="indefinite"></animate>
  </rect>
</g><g transform="rotate(69.23076923076923 50 50)">
  <rect x="48.5" y="26.5" rx="1.5" ry="3.5" width="3" height="7" fill="#64a4ef">
    <animate attributeName="opacity" values="1;0" keyTimes="0;1" dur="1.36986301369863s" begin="-1.0537407797681768s" repeatCount="indefinite"></animate>
  </rect>
</g><g transform="rotate(83.07692307692308 50 50)">
  <rect x="48.5" y="26.5" rx="1.5" ry="3.5" width="3" height="7" fill="#64a4ef">
    <animate attributeName="opacity" values="1;0" keyTimes="0;1" dur="1.36986301369863s" begin="-1.001053740779768s" repeatCount="indefinite"></animate>
  </rect>
</g><g transform="rotate(96.92307692307692 50 50)">
  <rect x="48.5" y="26.5" rx="1.5" ry="3.5" width="3" height="7" fill="#64a4ef">
    <animate attributeName="opacity" values="1;0" keyTimes="0;1" dur="1.36986301369863s" begin="-0.9483667017913592s" repeatCount="indefinite"></animate>
  </rect>
</g><g transform="rotate(110.76923076923077 50 50)">
  <rect x="48.5" y="26.5" rx="1.5" ry="3.5" width="3" height="7" fill="#64a4ef">
    <animate attributeName="opacity" values="1;0" keyTimes="0;1" dur="1.36986301369863s" begin="-0.8956796628029503s" repeatCount="indefinite"></animate>
  </rect>
</g><g transform="rotate(124.61538461538461 50 50)">
  <rect x="48.5" y="26.5" rx="1.5" ry="3.5" width="3" height="7" fill="#64a4ef">
    <animate attributeName="opacity" values="1;0" keyTimes="0;1" dur="1.36986301369863s" begin="-0.8429926238145414s" repeatCount="indefinite"></animate>
  </rect>
</g><g transform="rotate(138.46153846153845 50 50)">
  <rect x="48.5" y="26.5" rx="1.5" ry="3.5" width="3" height="7" fill="#64a4ef">
    <animate attributeName="opacity" values="1;0" keyTimes="0;1" dur="1.36986301369863s" begin="-0.7903055848261326s" repeatCount="indefinite"></animate>
  </rect>
</g><g transform="rotate(152.30769230769232 50 50)">
  <rect x="48.5" y="26.5" rx="1.5" ry="3.5" width="3" height="7" fill="#64a4ef">
    <animate attributeName="opacity" values="1;0" keyTimes="0;1" dur="1.36986301369863s" begin="-0.7376185458377238s" repeatCount="indefinite"></animate>
  </rect>
</g><g transform="rotate(166.15384615384616 50 50)">
  <rect x="48.5" y="26.5" rx="1.5" ry="3.5" width="3" height="7" fill="#64a4ef">
    <animate attributeName="opacity" values="1;0" keyTimes="0;1" dur="1.36986301369863s" begin="-0.6849315068493149s" repeatCount="indefinite"></animate>
  </rect>
</g><g transform="rotate(180 50 50)">
  <rect x="48.5" y="26.5" rx="1.5" ry="3.5" width="3" height="7" fill="#64a4ef">
    <animate attributeName="opacity" values="1;0" keyTimes="0;1" dur="1.36986301369863s" begin="-0.632244467860906s" repeatCount="indefinite"></animate>
  </rect>
</g><g transform="rotate(193.84615384615384 50 50)">
  <rect x="48.5" y="26.5" rx="1.5" ry="3.5" width="3" height="7" fill="#64a4ef">
    <animate attributeName="opacity" values="1;0" keyTimes="0;1" dur="1.36986301369863s" begin="-0.5795574288724973s" repeatCount="indefinite"></animate>
  </rect>
</g><g transform="rotate(207.69230769230768 50 50)">
  <rect x="48.5" y="26.5" rx="1.5" ry="3.5" width="3" height="7" fill="#64a4ef">
    <animate attributeName="opacity" values="1;0" keyTimes="0;1" dur="1.36986301369863s" begin="-0.5268703898840884s" repeatCount="indefinite"></animate>
  </rect>
</g><g transform="rotate(221.53846153846155 50 50)">
  <rect x="48.5" y="26.5" rx="1.5" ry="3.5" width="3" height="7" fill="#64a4ef">
    <animate attributeName="opacity" values="1;0" keyTimes="0;1" dur="1.36986301369863s" begin="-0.4741833508956796s" repeatCount="indefinite"></animate>
  </rect>
</g><g transform="rotate(235.3846153846154 50 50)">
  <rect x="48.5" y="26.5" rx="1.5" ry="3.5" width="3" height="7" fill="#64a4ef">
    <animate attributeName="opacity" values="1;0" keyTimes="0;1" dur="1.36986301369863s" begin="-0.4214963119072707s" repeatCount="indefinite"></animate>
  </rect>
</g><g transform="rotate(249.23076923076923 50 50)">
  <rect x="48.5" y="26.5" rx="1.5" ry="3.5" width="3" height="7" fill="#64a4ef">
    <animate attributeName="opacity" values="1;0" keyTimes="0;1" dur="1.36986301369863s" begin="-0.3688092729188619s" repeatCount="indefinite"></animate>
  </rect>
</g><g transform="rotate(263.0769230769231 50 50)">
  <rect x="48.5" y="26.5" rx="1.5" ry="3.5" width="3" height="7" fill="#64a4ef">
    <animate attributeName="opacity" values="1;0" keyTimes="0;1" dur="1.36986301369863s" begin="-0.316122233930453s" repeatCount="indefinite"></animate>
  </rect>
</g><g transform="rotate(276.9230769230769 50 50)">
  <rect x="48.5" y="26.5" rx="1.5" ry="3.5" width="3" height="7" fill="#64a4ef">
    <animate attributeName="opacity" values="1;0" keyTimes="0;1" dur="1.36986301369863s" begin="-0.2634351949420442s" repeatCount="indefinite"></animate>
  </rect>
</g><g transform="rotate(290.7692307692308 50 50)">
  <rect x="48.5" y="26.5" rx="1.5" ry="3.5" width="3" height="7" fill="#64a4ef">
    <animate attributeName="opacity" values="1;0" keyTimes="0;1" dur="1.36986301369863s" begin="-0.21074815595363536s" repeatCount="indefinite"></animate>
  </rect>
</g><g transform="rotate(304.61538461538464 50 50)">
  <rect x="48.5" y="26.5" rx="1.5" ry="3.5" width="3" height="7" fill="#64a4ef">
    <animate attributeName="opacity" values="1;0" keyTimes="0;1" dur="1.36986301369863s" begin="-0.1580611169652265s" repeatCount="indefinite"></animate>
  </rect>
</g><g transform="rotate(318.46153846153845 50 50)">
  <rect x="48.5" y="26.5" rx="1.5" ry="3.5" width="3" height="7" fill="#64a4ef">
    <animate attributeName="opacity" values="1;0" keyTimes="0;1" dur="1.36986301369863s" begin="-0.10537407797681768s" repeatCount="indefinite"></animate>
  </rect>
</g><g transform="rotate(332.3076923076923 50 50)">
  <rect x="48.5" y="26.5" rx="1.5" ry="3.5" width="3" height="7" fill="#64a4ef">
    <animate attributeName="opacity" values="1;0" keyTimes="0;1" dur="1.36986301369863s" begin="-0.05268703898840884s" repeatCount="indefinite"></animate>
  </rect>
</g><g transform="rotate(346.15384615384613 50 50)">
  <rect x="48.5" y="26.5" rx="1.5" ry="3.5" width="3" height="7" fill="#64a4ef">
    <animate attributeName="opacity" values="1;0" keyTimes="0;1" dur="1.36986301369863s" begin="0s" repeatCount="indefinite"></animate>
  </rect>
</g>
<!-- [ldio] generated by https://loading.io/ --></svg>